<svg width="110" height="90" viewBox="0 0 110 90" fill="none" xmlns="http://www.w3.org/2000/svg">
<path d="M100 25C100 27.7614 102.239 30 105 30C107.761 30 110 27.7614 110 25C110 22.2386 107.761 20 105 20C102.239 20 100 22.2386 100 25Z" fill="#EFEFEF"/>
<path d="M100 45C100 47.7614 102.239 50 105 50C107.761 50 110 47.7614 110 45C110 42.2386 107.761 40 105 40C102.239 40 100 42.2386 100 45Z" fill="#EFEFEF"/>
<path d="M100 65C100 67.7614 102.239 70 105 70C107.761 70 110 67.7614 110 65C110 62.2386 107.761 60 105 60C102.239 60 100 62.2386 100 65Z" fill="#EFEFEF"/>
<path d="M80 5.00001C80 7.76143 82.2386 10 85 10C87.7614 10 90 7.76143 90 5.00001C90 2.23858 87.7614 7.62939e-06 85 7.62939e-06C82.2386 7.62939e-06 80 2.23858 80 5.00001Z" fill="#EFEFEF"/>
<path d="M80 25C80 27.7614 82.2386 30 85 30C87.7614 30 90 27.7614 90 25C90 22.2386 87.7614 20 85 20C82.2386 20 80 22.2386 80 25Z" fill="#EFEFEF"/>
<path d="M80 45C80 47.7614 82.2386 50 85 50C87.7614 50 90 47.7614 90 45C90 42.2386 87.7614 40 85 40C82.2386 40 80 42.2386 80 45Z" fill="#EFEFEF"/>
<path d="M80 65C80 67.7614 82.2386 70 85 70C87.7614 70 90 67.7614 90 65C90 62.2386 87.7614 60 85 60C82.2386 60 80 62.2386 80 65Z" fill="#EFEFEF"/>
<path d="M80 85C80 87.7614 82.2386 90 85 90C87.7614 90 90 87.7614 90 85C90 82.2386 87.7614 80 85 80C82.2386 80 80 82.2386 80 85Z" fill="#EFEFEF"/>
<path d="M60 5C60 7.76142 62.2386 10 65 10C67.7614 10 70 7.76142 70 5C70 2.23858 67.7614 0 65 0C62.2386 0 60 2.23858 60 5Z" fill="#EFEFEF"/>
<path d="M60 25C60 27.7614 62.2386 30 65 30C67.7614 30 70 27.7614 70 25C70 22.2386 67.7614 20 65 20C62.2386 20 60 22.2386 60 25Z" fill="#EFEFEF"/>
<path d="M60 45C60 47.7614 62.2386 50 65 50C67.7614 50 70 47.7614 70 45C70 42.2386 67.7614 40 65 40C62.2386 40 60 42.2386 60 45Z" fill="#EFEFEF"/>
<path d="M60 65C60 67.7614 62.2386 70 65 70C67.7614 70 70 67.7614 70 65C70 62.2386 67.7614 60 65 60C62.2386 60 60 62.2386 60 65Z" fill="#EFEFEF"/>
<path d="M60 85C60 87.7614 62.2386 90 65 90C67.7614 90 70 87.7614 70 85C70 82.2386 67.7614 80 65 80C62.2386 80 60 82.2386 60 85Z" fill="#EFEFEF"/>
<path d="M40 5C40 7.76142 42.2386 10 45 10C47.7614 10 50 7.76142 50 5C50 2.23858 47.7614 0 45 0C42.2386 0 40 2.23858 40 5Z" fill="#EFEFEF"/>
<path d="M40 25C40 27.7614 42.2386 30 45 30C47.7614 30 50 27.7614 50 25C50 22.2386 47.7614 20 45 20C42.2386 20 40 22.2386 40 25Z" fill="#EFEFEF"/>
<path d="M40 45C40 47.7614 42.2386 50 45 50C47.7614 50 50 47.7614 50 45C50 42.2386 47.7614 40 45 40C42.2386 40 40 42.2386 40 45Z" fill="#EFEFEF"/>
<path d="M40 65C40 67.7614 42.2386 70 45 70C47.7614 70 50 67.7614 50 65C50 62.2386 47.7614 60 45 60C42.2386 60 40 62.2386 40 65Z" fill="#EFEFEF"/>
<path d="M40 85C40 87.7614 42.2386 90 45 90C47.7614 90 50 87.7614 50 85C50 82.2386 47.7614 80 45 80C42.2386 80 40 82.2386 40 85Z" fill="#EFEFEF"/>
<path d="M20 5C20 7.76142 22.2386 10 25 10C27.7614 10 30 7.76142 30 5C30 2.23858 27.7614 0 25 0C22.2386 0 20 2.23858 20 5Z" fill="#EFEFEF"/>
<path d="M20 25C20 27.7614 22.2386 30 25 30C27.7614 30 30 27.7614 30 25C30 22.2386 27.7614 20 25 20C22.2386 20 20 22.2386 20 25Z" fill="#EFEFEF"/>
<path d="M20 45C20 47.7614 22.2386 50 25 50C27.7614 50 30 47.7614 30 45C30 42.2386 27.7614 40 25 40C22.2386 40 20 42.2386 20 45Z" fill="#EFEFEF"/>
<path d="M20 65C20 67.7614 22.2386 70 25 70C27.7614 70 30 67.7614 30 65C30 62.2386 27.7614 60 25 60C22.2386 60 20 62.2386 20 65Z" fill="#EFEFEF"/>
<path d="M20 85C20 87.7614 22.2386 90 25 90C27.7614 90 30 87.7614 30 85C30 82.2386 27.7614 80 25 80C22.2386 80 20 82.2386 20 85Z" fill="#EFEFEF"/>
<path d="M0 25C0 27.7614 2.23858 30 5 30C7.76142 30 10 27.7614 10 25C10 22.2386 7.76142 20 5 20C2.23858 20 0 22.2386 0 25Z" fill="#EFEFEF"/>
<path d="M0 45C0 47.7614 2.23858 50 5 50C7.76142 50 10 47.7614 10 45C10 42.2386 7.76142 40 5 40C2.23858 40 0 42.2386 0 45Z" fill="#EFEFEF"/>
<path d="M0 65C0 67.7614 2.23858 70 5 70C7.76142 70 10 67.7614 10 65C10 62.2386 7.76142 60 5 60C2.23858 60 0 62.2386 0 65Z" fill="#EFEFEF"/>
</svg>
